<svg id="eml8Kgrd7Bc1" xmlns="http://www.w3.org/2000/svg" xmlns:xlink="http://www.w3.org/1999/xlink" viewBox="0 0 150 150">
<path d="M148.53438,177.20732c-9.34191,0-18.22272-1.97419-26.248-5.52812.687664-10.448517-7.501265-26.062374-13.281988-40.084948L84.74803,124.28495c-.72288-3.87797-1.10084-7.87726-1.10084-11.96483c0-35.83621,29.05098-64.88719,64.88719-64.88719s64.88719,29.05098,64.88719,64.88719c0,4.08757-.37796,8.08686-1.10084,11.96483l-23.117021,7.309302c-4.558202,6.668397-9.795934,22.79906-13.289519,39.570628-8.31888,3.87727-17.5965,6.04243-27.37981,6.04243v.00001Z" transform="matrix(1.079663 0 0 1.079663-85.274786-45.668803)" fill="#fff" stroke="#000" stroke-width="2"/>
<ellipse rx="15" ry="15" cx="100" cy="60"/>
<ellipse rx="15" ry="15" cx="50" cy="60"/>
<rect width="5" height="20" x="76" y="74"  stroke-width="0"/>
<rect width="5" height="20" x="70" y="74"  stroke-width="0"/>
<path d="M181.537773,150c-20.890965,4.507309-44.21305,4.96703-64.622002,0c15.543043,4.349274,47.854041,3.940847,64.621995,0h.000007Z" transform="matrix(1.111375 0 0 1.079663-90.148342-48.851999)" fill="none" stroke="#000" stroke-width="2"/>
</svg>
